<svg height="484pt" viewBox="0 -25 484.49538 484" width="484pt" xmlns="http://www.w3.org/2000/svg"><path d="m464.628906 375.253906c12.820313 9.277344 15.699219 27.191406 6.425782 40.011719-9.277344 12.824219-27.1875 15.703125-40.011719 6.429687-12.828125-9.273437-15.707031-27.183593-6.433594-40.011718.109375-.160156.230469-.308594.339844-.46875 9.398437-12.460938 27.035156-15.109375 39.679687-5.960938zm0 0" fill="#fedb41"/><path d="m378.277344 184.285156v163.667969l-137.058594 63.0625v-163.242187zm0 0" fill="#fedb41"/><path d="m240.9375 121.355469.28125-.128907 137.058594 63.058594-137.058594 63.488282-137.070312-63.488282zm0 0" fill="#00efd1"/><path d="m240.9375 65.484375c-15.488281-.75-27.476562-13.847656-26.855469-29.34375.617188-15.496094 13.613281-27.59375 29.113281-27.101563 15.5.488282 27.707032 13.382813 27.347657 28.886719-.359375 15.503907-13.148438 27.816407-28.65625 27.589844-.316407 0-.636719-.011719-.949219-.03125zm0 0" fill="#fedb41"/><path d="m105.007812 348.355469-.859374-.402344v-163.667969l137.070312 63.488282v163.242187zm0 0" fill="#00acea"/><path d="m59.898438 381.683594c9.023437 12.746094 6.054687 30.386718-6.644532 39.476562-12.699218 9.085938-30.355468 6.207032-39.507812-6.445312-9.15625-12.652344-6.363282-30.324219 6.242187-39.539063 12.605469-9.21875 30.289063-6.519531 39.570313 6.039063.109375.160156.230468.308594.339844.46875zm0 0" fill="#fedb41"/><path d="m469.320312 368.773438c-13.816406-9.839844-32.542968-9.066407-45.5 1.875l-37.882812-27.261719v-159.101563c.070312-3.097656-1.6875-5.941406-4.484375-7.265625l-132.515625-61.046875v-43.144531c18.324219-3.601563 31.007812-20.410156 29.4375-39.019531-1.566406-18.609375-16.878906-33.0625-35.546875-33.546875-18.667969-.488281-34.714844 13.144531-37.25 31.644531s9.25 35.949219 27.359375 40.503906v43.816406l-132.238281 60.792969c-2.863281 1.292969-4.71875 4.125-4.761719 7.265625v160.597656l-35.523438 25.765626c-11.792968-10.070313-28.652343-11.625-42.085937-3.875-13.433594 7.746093-20.53125 23.117187-17.722656 38.367187 2.8125 15.253906 14.925781 27.082031 30.238281 29.527344 1.953125.316406 3.925781.472656 5.902344.476562 12.421875-.035156 23.980468-6.351562 30.71875-16.785156 6.738281-10.4375 7.738281-23.574219 2.65625-34.910156l35.792968-25.875 131.960938 60.707031c2.121094.976562 4.566406.976562 6.6875 0l133.222656-61.296875 36.601563 26.460937c-5.085938 11.332032-4.085938 24.46875 2.652343 34.90625 6.734376 10.433594 18.296876 16.753907 30.71875 16.785157 1.972657 0 3.941407-.15625 5.890626-.472657 14.640624-2.351562 26.421874-13.289062 29.851562-27.714843s-2.167969-29.496094-14.183594-38.183594zm-228.101562-129.816407-117.980469-54.648437 117.984375-54.277344 117.972656 54.277344zm-19.980469-202.101562c.003907-11.40625 9.253907-20.652344 20.660157-20.652344 11.40625.003906 20.652343 9.253906 20.648437 20.660156 0 11.410157-9.25 20.652344-20.660156 20.652344-.144531 0-.292969 0-.433594-.015625-.085937-.003906-.171875-.007812-.257813-.011719-11.152343-.316406-20.011718-9.476562-19.957031-20.632812zm-164.167969 364.894531c-.855468 5.414062-3.839843 10.261719-8.289062 13.460938-9.179688 6.613281-21.976562 4.597656-28.679688-4.515626-6.699218-9.117187-4.808593-21.929687 4.246094-28.71875 9.050782-6.789062 21.882813-5.019531 28.757813 3.964844.066406.089844.132812.179688.199219.269532l.113281.160156c3.222656 4.433594 4.535156 9.972656 3.652343 15.378906zm54.867188-204.941406 121 56.078125v145.640625l-121-55.699219zm137 201.71875v-145.644532l121-56.074218v146.019531zm215.640625 12.050781c-3.183594 4.511719-8.027344 7.578125-13.46875 8.519531-5.375.847656-10.875-.382812-15.382813-3.433594-4.46875-4-7.414062-8.238281-8.289062-13.6875-.882812-5.441406.429688-11.015624 3.65625-15.492187.035156-.050781.074219-.160156.109375-.210937.070313-.09375.136719-.210938.203125-.300782 6.847656-8.996094 19.65625-10.8125 28.734375-4.074218 9.082031 6.734374 11.054687 19.519531 4.433594 28.683593zm0 0" fill="#083863"/></svg>