<?xml version="1.0" encoding="iso-8859-1"?>
<!-- Generator: Adobe Illustrator 19.0.0, SVG Export Plug-In . SVG Version: 6.00 Build 0)  -->
<svg version="1.1" id="Capa_1" xmlns="http://www.w3.org/2000/svg" xmlns:xlink="http://www.w3.org/1999/xlink" x="0px" y="0px"
	 viewBox="0 0 436.907 436.907" style="enable-background:new 0 0 436.907 436.907;" xml:space="preserve">
<circle style="fill:#45B39C;" cx="218.454" cy="218.45" r="218.45"/>
<path style="opacity:0.1;enable-background:new    ;" d="M218.457,436.907c95.189,0,176.113-60.902,206.047-145.852L261.286,127.837
	c-9.83-3.994-17.817-1.195-23.142,1.331c-3.086,1.458-5.641,2.312-7.826,2.79l-11.63-11.63h-6.383v54.306
	c-61.85,4.677-110.831,66.833-110.831,127.113H90.45v14.814l120.147,120.147C213.211,436.801,215.821,436.907,218.457,436.907z"/>
<rect x="90.454" y="301.77" style="fill:#64798A;" width="256" height="14.814"/>
<path style="fill:#DC8744;" d="M101.492,301.762c0-62.681,52.944-127.448,118.253-127.448s118.253,64.767,118.253,127.448"/>
<path style="fill:#D5D6DB;" d="M114.802,301.762c0-55.083,46.985-111.448,104.943-111.448s104.943,56.365,104.943,111.448"/>
<path style="fill:#EBF0F3;" d="M261.303,162.962c0,0-10.648-18.367-29.813-7.187c-5.538,3.231-3.993-4.7-12.777,2.175v-31.723
	c0,0,0.78,11.738,19.432,2.928c5.312-2.509,13.31-5.324,23.159-1.331C261.303,127.825,270.089,140.602,261.303,162.962z"/>
<rect x="212.314" y="120.32" style="fill:#DC8744;" width="6.39" height="59.09"/>
<rect x="200.724" y="237.16" style="fill:#2D93BA;" width="38.03" height="64.61"/>
<polygon style="fill:#27A2DB;" points="200.727,301.762 200.727,237.147 238.762,237.147 "/>
<rect x="265.523" y="240.84" style="fill:#2D93BA;" width="32.662" height="33.584"/>
<polygon style="fill:#27A2DB;" points="265.53,274.421 265.53,240.838 298.191,240.838 "/>
<g>
	<rect x="280.924" y="240.61" style="fill:#EBF0F3;" width="1.894" height="33.816"/>
	<rect x="265.523" y="256.2" style="fill:#EBF0F3;" width="32.662" height="2.843"/>
</g>
<rect x="147.084" y="240.84" style="fill:#2D93BA;" width="32.662" height="33.584"/>
<polygon style="fill:#27A2DB;" points="147.093,274.421 147.093,240.838 179.754,240.838 "/>
<g>
	<rect x="162.474" y="240.61" style="fill:#EBF0F3;" width="1.894" height="33.816"/>
	<rect x="147.084" y="256.2" style="fill:#EBF0F3;" width="32.662" height="2.843"/>
</g>
<polygon style="fill:#64798A;" points="227.304,217.593 219.822,213.731 212.399,217.705 213.76,209.396 207.687,203.564 
	216.009,202.291 219.679,194.713 223.462,202.235 231.803,203.383 225.818,209.305 "/>
<g>
</g>
<g>
</g>
<g>
</g>
<g>
</g>
<g>
</g>
<g>
</g>
<g>
</g>
<g>
</g>
<g>
</g>
<g>
</g>
<g>
</g>
<g>
</g>
<g>
</g>
<g>
</g>
<g>
</g>
</svg>
