<svg height="277pt" viewBox="0 0 277.496 277" width="277pt" xmlns="http://www.w3.org/2000/svg"><path d="m274.648438 152.53125-47.757813-22.734375c-2.488281-1.160156-5.449219-.097656-6.628906 2.382813-1.183594 2.476562-.140625 5.449218 2.332031 6.648437l38.273438 18.226563-55.242188 26.296874-55.25-26.308593 50.25-23.925781v23.925781c0 2.761719 2.238281 5 5 5s5-2.238281 5-5v-62.097657c0-2.761718-2.238281-5-5-5h-61.878906v-52.851562c-.101563-1.894531-1.179688-3.605469-2.847656-4.511719l-66.875-31.847656c-1.359376-.6484375-2.9375-.6484375-4.300782 0l-66.875 31.863281c-1.664062.914063-2.738281 2.617188-2.847656 4.511719v83.84375c0 1.929687 1.109375 3.683594 2.847656 4.511719l66.875 31.84375c1.363282.632812 2.9375.632812 4.300782 0l66.875-31.84375c1.628906-.757813 2.722656-2.332032 2.867187-4.121094.148437-1.789062-.675781-3.519531-2.160156-4.53125-1.480469-1.015625-3.390625-1.15625-5.003907-.375l-59.730468 28.441406v-72.800781l56.875-27.078125v44.945312h-28.433594c-2.761719 0-5 2.238282-5 5 0 2.761719 2.238281 5 5 5h95.3125v22.097657l-64.027344 30.488281c-.0625.027344-.09375.082031-.148437.109375-1.511719.992187-2.503907 2.605469-2.703125 4.402344v83.859375c.003906 1.925781 1.109375 3.683594 2.851562 4.511718l66.875 31.84375c1.390625.480469 2.90625.480469 4.300782 0l66.875-31.859374c1.738281-.828126 2.847656-2.585938 2.847656-4.511719v-83.84375c-.242188-1.847657-1.285156-3.5-2.847656-4.511719zm-207.777344-7.652344-56.871094-27.082031v-72.796875l24.660156 11.742188c2.488282 1.164062 5.449219.101562 6.632813-2.378907 1.179687-2.480469.140625-5.449219-2.332031-6.648437l-22.332032-10.621094 55.246094-26.308594 55.246094 26.308594-55.25 26.304688-14.640625-6.972657c-1.613281-.78125-3.523438-.640625-5.003907.375-1.484374 1.011719-2.308593 2.742188-2.160156 4.53125.144532 1.789063 1.238282 3.363281 2.867188 4.121094l13.9375 6.640625zm200.628906 92.867188-61.875 29.464844-61.878906-29.464844v-72.800782l56.878906 27.082032v55.976562c0 2.761719 2.238281 5 5 5s5-2.238281 5-5v-55.957031l56.875-27.085937zm0 0"/></svg>