<svg height="273pt" viewBox="0 -1 273.52304 273" width="273pt" xmlns="http://www.w3.org/2000/svg"><path d="m146.578125 97.195312 50.535156 24.0625c1.335938.660157 2.902344.652344 4.230469-.019531.019531 0 .046875.035157.066406.019531l50.535156-24.0625c1.742188-.828124 2.851563-2.582031 2.855469-4.511718v-63.371094c-.003906-1.71875-.882812-3.3125-2.332031-4.230469-.167969-.085937-.335938-.164062-.507812-.234375v-.046875l-50.550782-24.054687c-1.359375-.6484378-2.9375-.6484378-4.296875 0l-50.535156 24.054687v.050781c-.171875.070313-.335937.148438-.5.234376-1.449219.917968-2.332031 2.511718-2.332031 4.230468v63.367188c0 1.921875 1.097656 3.679687 2.832031 4.511718zm47.683594 11.632813-40.535157-19.300781v-52.296875l40.535157 19.304687zm5-98.042969 38.910156 18.527344-20.722656 9.867188c-1.648438.746093-2.765625 2.324218-2.921875 4.125-.15625 1.804687.675781 3.550781 2.171875 4.570312 1.5 1.015625 3.429687 1.144531 5.046875.332031l23.054687-10.976562v52.296875l-40.539062 19.304687v-55.457031c0-1.925781-1.109375-3.683594-2.851563-4.511719l-41.054687-19.550781zm0 0"/><path d="m268.359375 136.347656c-6.640625-6.0625-16.867187-5.863281-23.269531.453125l-35.597656 33.75c-1.960938 1.890625-4.59375 2.917969-7.316407 2.851563l-36.378906-.578125c-.304687-.003907-.550781-.242188-.566406-.542969-.007813-.15625.050781-.308594.15625-.421875.109375-.113281.261719-.175781.417969-.175781l20.832031.136718c6.40625.21875 12.441406-2.992187 15.84375-8.425781 3.941406-5.121093 4.917969-11.933593 2.574219-17.957031-2.136719-4.15625-6.4375-6.75-11.109376-6.699219l-39.683593-.253906c-13.285157-.027344-26.078125 5.023437-35.761719 14.121094l-22.5 21.34375-5.652344-5.964844c-1.117187-1.179687-2.65625-1.863281-4.28125-1.902344-1.605468-.003906-3.15625.59375-4.34375 1.675781l-14.695312 13.933594c-1.179688 1.113282-1.867188 2.648438-1.910156 4.269532-.046876 1.621093.554687 3.195312 1.667968 4.371093l56.402344 59.46875-14.679688 14.148438c-1.988281 1.917969-2.046874 5.082031-.128906 7.070312 1.917969 1.988281 5.082032 2.046875 7.070313.128907l14.589843-14.085938 5.9375 6.261719c1.109376 1.175781 2.644532 1.859375 4.261719 1.894531h.160157c1.5625.003906 3.070312-.597656 4.199218-1.675781l14.703125-13.9375c2.445313-2.320313 2.550781-6.1875.230469-8.632813l-56.660156-59.78125 22.511718-21.34375c7.800782-7.335937 18.113282-11.410156 28.824219-11.378906l39.425781.25c1.960938.113281 2.3125.828125 2.445313 1.097656.632813 2.777344-.042969 5.691406-1.835937 7.902344-1.464844 2.460938-4.082032 4.007812-6.941407 4.109375-.136719 0-.273437 0-.402343 0l-21.019532-.136719h-.0625c-5.765625.054688-10.425781 4.71875-10.472656 10.484375s4.535156 10.507813 10.300781 10.65625l36.398438.578125c5.335937.09375 10.488281-1.917968 14.351562-5.597656l35.601563-33.753906c2.558594-2.605469 6.695312-2.804688 9.496094-.457032 1.308593 1.238282 2.054687 2.960938 2.054687 4.765626 0 1.804687-.746094 3.53125-2.054687 4.769531l-38.710938 36.699219c-5.246094 4.945312-11.523438 8.671874-18.382812 10.910156l-43.371094 14.160156c-2.625.859375-4.058594 3.679688-3.203125 6.304688s3.675781 4.0625 6.304687 3.203124l43.375-14.160156c8.261719-2.714844 15.824219-7.222656 22.144532-13.199218l38.707031-36.699219c3.285156-3.128907 5.152343-7.460938 5.167969-12 .011718-4.542969-1.859376-8.890625-5.164063-12.007813zm-127.808594 117.253906-63.835937-67.332031 9.050781-8.585937 6.402344 6.757812 57.429687 60.574219zm0 0"/><path d="m59.15625 208.921875-57.742188 54.992187c-1.871093 1.929688-1.886718 4.992188-.03125 6.9375 1.851563 1.945313 4.914063 2.074219 6.929688.296876l57.742188-54.980469c2-1.90625 2.078124-5.070313.171874-7.070313-1.90625-2.003906-5.070312-2.078125-7.070312-.175781zm0 0"/></svg>