<svg height="274pt" viewBox="0 0 274 274.46" width="274pt" xmlns="http://www.w3.org/2000/svg"><path d="m94.816406 167.125 40.488282 19.277344c1.339843.660156 2.914062.648437 4.246093-.027344 0 0 .035157.035156.054688.027344l40.488281-19.277344c1.742188-.828125 2.851562-2.585938 2.851562-4.511719v-25.390625c0-2.761718-2.238281-5-5-5-2.761718 0-5 2.238282-5 5v22.234375l-30.492187 14.515625v-39.695312l37.636719-17.925782c2.496094-1.183593 3.554687-4.167968 2.367187-6.664062-.371093-.734375-.921875-1.359375-1.597656-1.824219-.222656-.226562-.484375-.410156-.773437-.539062l-40.488282-19.28125c-1.359375-.648438-2.9375-.648438-4.296875 0l-40.488281 19.28125c-.070312.042969-.140625.089843-.207031.140625-.097657.054687-.210938.082031-.3125.144531-1.449219.914063-2.332031 2.511719-2.332031 4.226563v50.777343c.003906 1.925781 1.113281 3.683594 2.855468 4.511719zm7.148438-47.367188 30.488281 14.515626v39.695312l-30.488281-14.515625zm35.488281-21.660156 28.859375 13.742188-28.859375 13.738281-28.859375-13.742187zm0 0"/><path d="m137.453125 218.894531c45.105469 0 81.671875-36.5625 81.671875-81.671875 0-45.105468-36.566406-81.671875-81.671875-81.671875s-81.671875 36.566407-81.671875 81.671875c.050781 45.085938 36.585938 81.621094 81.671875 81.671875zm0-153.34375c39.585937 0 71.671875 32.089844 71.671875 71.671875 0 39.585938-32.085938 71.671875-71.671875 71.671875-39.582031 0-71.671875-32.085937-71.671875-71.671875.042969-39.5625 32.109375-71.625 71.671875-71.671875zm0 0"/><path d="m269.679688 107.3125h-30.046876c-2.148437-7.363281-5.089843-14.472656-8.773437-21.199219l21.242187-21.246093c1.953126-1.953126 1.953126-5.117188 0-7.070313l-35.230468-35.234375c-1.953125-1.953125-5.121094-1.953125-7.074219 0l-21.242187 21.246094c-6.726563-3.6875-13.835938-6.628906-21.199219-8.777344v-30.03125c0-2.761719-2.238281-5-5-5h-49.8125c-2.761719 0-5 2.238281-5 5v30.046875c-7.363281 2.148437-14.472657 5.09375-21.199219 8.777344l-21.246094-21.246094c-1.953125-1.953125-5.117187-1.953125-7.070312 0l-35.234375 35.234375c-1.953125 1.953125-1.953125 5.117188 0 7.070312 1.953125 1.953126 5.121093 1.953126 7.074219 0l31.695312-31.695312 20.398438 20.402344c1.621093 1.613281 4.132812 1.925781 6.101562.753906 7.996094-4.777344 16.648438-8.363281 25.679688-10.640625 2.21875-.558594 3.777343-2.558594 3.777343-4.847656v-28.855469h39.820313v28.867188c0 2.289062 1.554687 4.289062 3.773437 4.847656 9.03125 2.277344 17.683594 5.863281 25.679688 10.640625 1.96875 1.175781 4.480469.863281 6.101562-.753907l20.398438-20.402343 28.160156 28.160156-20.398437 20.402344c-1.621094 1.617187-1.933594 4.132812-.757813 6.097656 4.777344 8 8.363281 16.652344 10.640625 25.683594.5625 2.21875 2.558594 3.773437 4.847656 3.773437h28.863282v39.824219h-28.835938c-2.285156 0-4.28125 1.554687-4.847656 3.769531-2.277344 9.035156-5.863282 17.6875-10.640625 25.6875-1.367188 2.363282-.582031 5.394532 1.765625 6.796875 2.347656 1.402344 5.386718.65625 6.820312-1.671875 4.601563-7.707031 8.207032-15.96875 10.722656-24.585937h30.046876c2.757812 0 5-2.238281 5-5v-49.824219c0-2.761719-2.242188-5-5-5zm0 0"/><path d="m245.03125 209.566406-31.691406 31.699219-20.402344-20.402344c-1.621094-1.613281-4.128906-1.925781-6.09375-.753906-8 4.773437-16.65625 8.359375-25.691406 10.636719-2.21875.5625-3.769532 2.5625-3.769532 4.851562v28.867188h-39.839843v-28.886719c0-2.285156-1.554688-4.285156-3.773438-4.847656-9.035156-2.277344-17.6875-5.863281-25.6875-10.636719-1.964843-1.171875-4.476562-.859375-6.097656.753906l-20.398437 20.398438-28.160157-28.15625 20.398438-20.402344c1.621093-1.617188 1.933593-4.132812.757812-6.097656-4.777343-8-8.359375-16.652344-10.640625-25.6875-.5625-2.214844-2.558594-3.769532-4.847656-3.769532h-28.863281v-39.820312h28.863281c2.289062 0 4.285156-1.554688 4.847656-3.773438 2.28125-9.03125 5.863282-17.683593 10.640625-25.683593.945313-1.535157.992188-3.460938.121094-5.039063s-2.523437-2.5625-4.328125-2.582031c-1.800781-.019531-3.472656.933594-4.378906 2.492187-4.601563 7.707032-8.203125 15.96875-10.722656 24.585938h-30.042969c-2.761719 0-5 2.238281-5 5v49.824219c0 2.761719 2.238281 5 5 5h30.042969c2.148437 7.363281 5.089843 14.472656 8.777343 21.199219l-21.246093 21.242187c-1.953126 1.953125-1.953126 5.121094 0 7.074219l35.234374 35.230468c1.953126 1.953126 5.117188 1.953126 7.070313 0l21.246094-21.246093c6.726562 3.683593 13.835937 6.625 21.199219 8.773437v30.050782c0 2.761718 2.238281 5 5 5h49.808593c2.761719 0 5-2.238282 5-5v-30.0625c7.363281-2.148438 14.472657-5.089844 21.199219-8.773438l21.242188 21.246094c1.953124 1.953125 5.121093 1.953125 7.074218 0l35.230469-35.230469c1.953125-1.953125 1.953125-5.121094 0-7.074219s-5.117187-1.953125-7.070313 0zm0 0"/></svg>