<svg height="483pt" viewBox="-9 0 483 483.47951" width="483pt" xmlns="http://www.w3.org/2000/svg"><path d="m456.203125 156.167969c9.242187-12.703125 10.988281-29.378907 4.582031-43.722657-6.410156-14.339843-19.992187-24.164062-35.621094-25.757812-15.628906-1.59375-30.914062 5.285156-40.085937 18.042969-.058594.078125-.109375.164062-.167969.246093l-109.871094-50.558593c4.269532-17.28125-2.320312-35.429688-16.683593-45.941407-14.363281-10.515624-33.652344-11.3125-48.835938-2.023437-15.183593 9.292969-23.25 26.832031-20.425781 44.40625.1875 1.15625.429688 2.300781.699219 3.421875l-108.886719 50.101562c-10.289062-13.898437-27.777344-20.46875-44.675781-16.785156-16.894531 3.683594-30.0625 16.933594-33.636719 33.851563-3.578125 16.921875 3.101562 34.367187 17.0625 44.570312 4.804688 3.367188 10.191406 5.824219 15.882812 7.246094v139.414063c-10.871093 2.238281-20.527343 8.421874-27.105468 17.359374-14.074219 19.703126-9.578125 47.074219 10.0625 61.234376 19.640625 14.160156 47.03125 9.78125 61.277344-9.792969.207031-.289063.40625-.582031.605468-.871094l109.058594 50.175781c-3.578125 17.464844 3.765625 35.359375 18.582031 45.277344 14.8125 9.917969 34.15625 9.886719 48.9375-.078125 14.785157-9.960937 22.070313-27.878906 18.4375-45.332031l109-50.15625c8.160157 11.960937 21.6875 19.132812 36.167969 19.171875 2.363281-.003907 4.726562-.191407 7.058594-.570313 17.53125-2.816406 31.636718-15.917968 35.738281-33.195312 4.101563-17.273438-2.609375-35.320313-17.003906-45.714844-5.316407-3.792969-11.394531-6.386719-17.8125-7.601562v-138.976563c11.113281-2.050781 21.019531-8.296875 27.660156-17.441406zm-58.15625-42.066407c4.320313-6.011718 10.867187-10.042968 18.179687-11.199218 1.480469-.238282 2.984376-.359375 4.484376-.359375 12.890624.023437 24.082031 8.871093 27.082031 21.40625 3 12.535156-2.976563 25.492187-14.457031 31.347656-11.484376 5.855469-25.480469 3.082031-33.863282-6.703125-8.386718-9.789062-8.976562-24.046875-1.425781-34.492188zm-188.21875-86.554687c7.796875-10.785156 22.132813-14.5625 34.230469-9.015625 12.101562 5.542969 18.601562 18.863281 15.523437 31.816406-3.078125 12.949219-14.875 21.921875-28.175781 21.429688-13.300781-.492188-24.402344-10.3125-26.515625-23.457032-1.175781-7.304687.601563-14.777343 4.9375-20.773437zm-13.5 41.34375c8.121094 11.699219 21.410156 18.738281 35.652344 18.882813 14.242187.140624 27.671875-6.625 36.027343-18.160157.148438-.199219.28125-.417969.425782-.621093l109.726562 50.488281c-1.8125 7.074219-1.835937 14.488281-.074218 21.574219l-109.679688 50.800781c-8.140625-11.648438-21.414062-18.636719-35.625-18.75-14.207031-.117188-27.59375 6.65625-35.917969 18.171875-.167969.230468-.316406.464844-.476562.699218l-108.394531-50.210937c1.992187-7.535156 1.953124-15.460937-.113282-22.976563zm19.761719 170.714844c-12.488282-9.027344-15.292969-26.46875-6.265625-38.957031 9.027343-12.488282 26.472656-15.292969 38.957031-6.261719 12.488281 9.03125 15.292969 26.472656 6.261719 38.957031-4.304688 6.039062-10.847657 10.101562-18.167969 11.277344-7.320312 1.175781-14.808594-.628906-20.785156-5.015625zm-193.101563-125.5c4.324219-6.011719 10.867188-10.042969 18.179688-11.199219 1.484375-.238281 2.984375-.359375 4.488281-.359375 12.886719.023437 24.082031 8.871094 27.082031 21.40625 2.996094 12.535156-2.980469 25.492187-14.460937 31.347656-11.480469 5.855469-25.480469 3.082031-33.863282-6.703125-8.386718-9.789062-8.972656-24.046875-1.425781-34.492187zm43.839844 258c-7.792969 10.785156-22.121094 14.566406-34.222656 9.027343-12.097657-5.542968-18.601563-18.855468-15.527344-31.804687 3.070313-12.949219 14.863281-21.921875 28.160156-21.4375 13.300781.488281 24.402344 10.300781 26.519531 23.4375 1.171876 7.308594-.605468 14.777344-4.9375 20.777344zm20.101563-6.097657c4.152343-17.351562-2.65625-35.488281-17.203126-45.816406-5.347656-3.992187-11.59375-6.617187-18.1875-7.636718v-138.714844c11.820313-1.515625 22.472657-7.902344 29.371094-17.621094l108.789063 50.34375c-4.15625 17.382812 2.597656 35.558594 17.101562 46.007812 5.300781 3.761719 11.351563 6.339844 17.738281 7.558594v136.316406c-11.066406 2.070313-20.921874 8.296876-27.542968 17.402344-.5.6875-1.03125 1.386719-1.484375 2.09375zm168.109374 89.902344c-9.027343 12.488282-26.46875 15.292969-38.957031 6.265625-12.488281-9.027343-15.292969-26.472656-6.261719-38.957031 9.027344-12.488281 26.472657-15.289062 38.957032-6.261719 12.46875 9.039063 15.269531 26.464844 6.261718 38.953125zm14.300782-40.085937c-2.90625-4.605469-6.65625-8.621094-11.054688-11.832031-5.300781-3.789063-11.351562-6.390626-17.746094-7.636719v-136.191407c11.042969-2.199218 20.875-8.414062 27.601563-17.445312 7.550781-10.480469 10.089844-23.757812 6.933594-36.285156l109.664062-50.808594c2.789063 4.011719 6.234375 7.527344 10.191407 10.398438 5.261718 3.753906 11.265624 6.339843 17.609374 7.585937v139.035156c-11.089843 1.964844-20.957031 8.214844-27.476562 17.394531-7.46875 10.332032-10.0625 23.40625-7.109375 35.804688zm178.855468-64.496094c2.105469 13.128906-5.351562 25.917969-17.816406 30.546875s-26.464844-.1875-33.4375-11.507812c-6.972656-11.320313-4.980468-25.992188 4.757813-35.042969 9.742187-9.046875 24.515625-9.960938 35.296875-2.175781 6.011718 4.324218 10.042968 10.867187 11.199218 18.179687zm0 0"/></svg>