<?xml version="1.0" encoding="iso-8859-1"?>
<!-- Generator: Adobe Illustrator 19.0.0, SVG Export Plug-In . SVG Version: 6.00 Build 0)  -->
<svg version="1.1" id="Layer_1" xmlns="http://www.w3.org/2000/svg" xmlns:xlink="http://www.w3.org/1999/xlink" x="0px" y="0px"
	 viewBox="0 0 491.52 491.52" style="enable-background:new 0 0 491.52 491.52;" xml:space="preserve">
<circle style="fill:#45B39C;" cx="245.76" cy="245.76" r="245.76"/>
<path style="opacity:0.1;enable-background:new    ;" d="M491.412,250.055L346.317,104.96H145.203v18.586l-28.569,25.293
	l-11.674,10.393v20.122c0,6.503,3.174,12.236,7.987,15.923V386.56l103.11,103.11c9.744,1.175,19.642,1.85,29.703,1.85
	C380.049,491.52,489.11,383.795,491.412,250.055z"/>
<rect x="112.947" y="157.747" style="fill:#FCD462;" width="265.656" height="228.813"/>
<path style="fill:#EBF0F3;" d="M386.56,159.221L386.56,159.221L386.56,159.221L386.56,159.221l-40.228-35.658h-28.735h-28.735
	h-28.734h-28.734h-28.735h-28.735h-28.735l-40.228,35.658l0,0l0,0l-0.001,0h0.001v20.114c0,11.109,9.005,20.114,20.114,20.114
	c11.108,0,20.114-9.005,20.114-20.114c0,11.109,9.005,20.114,20.113,20.114c11.11,0,20.115-9.005,20.115-20.114
	c0,11.109,9.005,20.114,20.115,20.114c11.109,0,20.114-9.005,20.114-20.114c0,11.109,9.006,20.114,20.114,20.114
	s20.114-9.005,20.114-20.114c0,11.109,9.006,20.114,20.114,20.114c11.11,0,20.115-9.005,20.115-20.114
	c0,11.109,9.005,20.114,20.114,20.114h0.001c11.108,0,20.114-9.005,20.114-20.114c0,11.109,9.005,20.114,20.113,20.114
	c11.109,0,20.114-9.005,20.114-20.114L386.56,159.221L386.56,159.221z"/>
<rect x="145.188" y="104.96" style="fill:#E1E6E9;" width="201.165" height="18.601"/>
<path style="fill:#D15241;" d="M104.96,159.221v20.114c0,11.109,9.005,20.114,20.114,20.114s20.115-9.005,20.115-20.114v-20.114
	H104.96z"/>
<path style="fill:#E1E6E9;" d="M145.189,159.221v20.114c0,11.109,9.005,20.114,20.114,20.114c11.11,0,20.115-9.005,20.115-20.114
	v-20.114H145.189z"/>
<path style="fill:#D15241;" d="M185.417,159.221v20.114c0,11.109,9.005,20.114,20.115,20.114c11.109,0,20.114-9.005,20.114-20.114
	v-20.114H185.417z"/>
<path style="fill:#E1E6E9;" d="M225.645,159.221v20.114c0,11.109,9.006,20.114,20.115,20.114c11.109,0,20.114-9.005,20.114-20.114
	v-20.114H225.645z"/>
<path style="fill:#D15241;" d="M265.874,159.221v20.114c0,11.109,9.006,20.114,20.115,20.114c11.11,0,20.115-9.005,20.115-20.114
	v-20.114H265.874z"/>
<path style="fill:#E1E6E9;" d="M306.103,159.221v20.114c0,11.109,9.005,20.114,20.114,20.114h0.001
	c11.108,0,20.114-9.005,20.114-20.114v-20.114H306.103z"/>
<path style="fill:#D15241;" d="M346.331,159.221v20.114c0,11.109,9.005,20.114,20.114,20.114c11.11,0,20.115-9.005,20.115-20.114
	v-20.114H346.331z"/>
<polygon style="fill:#E56353;" points="145.189,159.221 104.96,159.221 145.189,123.563 173.923,123.563 "/>
<polygon style="fill:#EBF0F3;" points="185.417,159.221 145.189,159.221 173.923,123.563 202.658,123.563 "/>
<polygon style="fill:#E56353;" points="225.646,159.221 185.417,159.221 202.658,123.563 231.393,123.563 "/>
<polygon style="fill:#EBF0F3;" points="265.874,159.221 225.646,159.221 231.393,123.563 260.127,123.563 "/>
<polygon style="fill:#E56353;" points="306.103,159.221 265.874,159.221 260.127,123.563 288.862,123.563 "/>
<polygon style="fill:#EBF0F3;" points="346.331,159.221 306.103,159.221 288.862,123.563 317.597,123.563 "/>
<polygon style="fill:#E56353;" points="386.56,159.221 346.331,159.221 317.597,123.563 346.331,123.563 "/>
<rect x="134.554" y="217.395" style="fill:#DC8744;" width="96.829" height="169.165"/>
<circle style="fill:#64798A;" cx="212.997" cy="301.967" r="7.511"/>
<rect x="254.909" y="243.635" style="fill:#F6C358;" width="99.773" height="70.344"/>
<rect x="260.009" y="248.755" style="fill:#27A2DB;" width="89.528" height="60.104"/>
<g>
	<polygon style="fill:#37B6E2;" points="277.485,308.858 318.13,248.753 325.012,248.753 284.368,308.858 	"/>
	<polygon style="fill:#37B6E2;" points="289.13,308.858 329.775,248.753 332.106,248.753 291.462,308.858 	"/>
</g>
<g>
</g>
<g>
</g>
<g>
</g>
<g>
</g>
<g>
</g>
<g>
</g>
<g>
</g>
<g>
</g>
<g>
</g>
<g>
</g>
<g>
</g>
<g>
</g>
<g>
</g>
<g>
</g>
<g>
</g>
</svg>
