<?xml version="1.0" encoding="iso-8859-1"?>
<!-- Generator: Adobe Illustrator 19.0.0, SVG Export Plug-In . SVG Version: 6.00 Build 0)  -->
<svg version="1.1" id="Capa_1" xmlns="http://www.w3.org/2000/svg" xmlns:xlink="http://www.w3.org/1999/xlink" x="0px" y="0px"
	 viewBox="0 0 512 512" style="enable-background:new 0 0 512 512;" xml:space="preserve">
<polygon style="fill:#415A6B;" points="387.2,449.067 387.2,422.4 337.067,422.4 337.067,269.867 387.2,269.867 387.2,243.2 
	337.067,243.2 337.067,89.6 387.2,89.6 387.2,62.933 310.4,62.933 310.4,243.2 259.2,243.2 259.2,269.867 310.4,269.867 
	310.4,449.067 "/>
<g>
	<path style="fill:#55C0EB;" d="M286.933,277.333v-42.667l-39.467-9.6c-2.133-7.467-5.333-13.867-8.533-21.333l21.333-35.2
		L230.4,138.667L195.2,160c-6.4-3.2-13.867-6.4-21.333-8.533l-9.6-39.467H121.6l-9.6,39.467C104.533,153.6,98.133,156.8,90.667,160
		l-35.2-21.333L25.6,168.533l21.333,35.2c-3.2,6.4-6.4,13.867-8.533,21.333l-38.4,9.6v42.667l39.467,9.6
		C41.6,294.4,44.8,300.8,48,308.267l-21.333,35.2l29.867,29.867L91.733,352c6.4,3.2,13.867,6.4,21.333,8.533l9.6,39.467h42.667
		l9.6-39.467C182.4,358.4,188.8,355.2,196.267,352l35.2,21.333l29.867-29.867L240,308.267c3.2-6.4,6.4-13.867,8.533-21.333
		L286.933,277.333z M144,324.267c-38.4,0-69.333-29.867-69.333-68.267s30.933-68.267,68.267-68.267
		c38.4,0,68.267,30.933,68.267,68.267C212.267,294.4,181.333,324.267,144,324.267z"/>
	<circle style="fill:#55C0EB;" cx="144" cy="256" r="37.333"/>
</g>
<circle style="fill:#F3705A;" cx="436.267" cy="75.733" r="75.733"/>
<circle style="fill:#F05540;" cx="436.267" cy="75.733" r="43.733"/>
<circle style="fill:#66C6B9;" cx="436.267" cy="256" r="75.733"/>
<circle style="fill:#4ABAA5;" cx="436.267" cy="256" r="43.733"/>
<circle style="fill:#FFD15C;" cx="436.267" cy="436.267" r="75.733"/>
<circle style="fill:#F7B64C;" cx="436.267" cy="436.267" r="43.733"/>
<g>
</g>
<g>
</g>
<g>
</g>
<g>
</g>
<g>
</g>
<g>
</g>
<g>
</g>
<g>
</g>
<g>
</g>
<g>
</g>
<g>
</g>
<g>
</g>
<g>
</g>
<g>
</g>
<g>
</g>
</svg>
