<svg height="474pt" viewBox="0 -17 474.22417 474" width="474pt" xmlns="http://www.w3.org/2000/svg"><path d="m58.609375 180.097656 176-107.3125 144 118.34375-40 188.320313-184-32zm0 0" fill="#4db5ff"/><path d="m226.609375.785156h16v240h-16zm0 0" fill="#3596d8"/><path d="m228.207031 245.582031 12.800781-9.597656 144 192-12.800781 9.597656zm0 0" fill="#3596d8"/><path d="m232.007812 233.246094 231.984376-80.046875 5.21875 15.125-231.984376 80.046875zm0 0" fill="#3596d8"/><path d="m84.191406 427.96875 144.035156-191.972656 12.800782 9.601562-144.039063 191.972656zm0 0" fill="#3596d8"/><path d="m258.609375 72.785156c0 13.253906-10.746094 24-24 24-13.257813 0-24-10.746094-24-24 0-13.257812 10.742187-24 24-24 13.253906 0 24 10.742188 24 24zm0 0" fill="#f6e8c7"/><path d="m402.609375 191.128906c0 13.253906-10.746094 24-24 24-13.257813 0-24-10.746094-24-24s10.742187-24 24-24c13.253906 0 24 10.746094 24 24zm0 0" fill="#f6e8c7"/><path d="m362.609375 379.449219c0 13.253906-10.746094 24-24 24-13.257813 0-24-10.746094-24-24 0-13.257813 10.742187-24 24-24 13.253906 0 24 10.742187 24 24zm0 0" fill="#f6e8c7"/><path d="m178.609375 347.449219c0 13.253906-10.746094 24-24 24-13.257813 0-24-10.746094-24-24 0-13.257813 10.742187-24 24-24 13.253906 0 24 10.742187 24 24zm0 0" fill="#f6e8c7"/><path d="m0 168.34375 5.214844-15.125 232.003906 80.003906-5.21875 15.125zm0 0" fill="#3596d8"/><path d="m376.488281 440.785156h-24v-16h24zm-48 0h-24v-16h24zm-48 0h-24v-16h24zm-48 0h-24v-16h24zm-48 0h-24v-16h24zm-48 0h-24v-16h24zm-54.144531-7.554687-7.390625-22.847657 15.199219-4.917968 7.382812 22.832031zm310.609375-18.796875-15.199219-4.9375 7.382813-22.832032 15.199219 4.9375zm-325.378906-26.867188-7.367188-22.839844 15.199219-4.925781 7.394531 22.832031zm340.160156-18.78125-15.199219-4.929687 7.394532-22.832031 15.199218 4.921874zm-354.941406-26.898437-7.386719-22.832031 15.203125-4.917969 7.382813 22.832031zm369.710937-18.789063-15.199218-4.9375 7.390624-22.832031 15.199219 4.929687zm-384.488281-26.875-7.40625-22.832031 15.199219-4.933594 7.390625 22.839844zm399.265625-18.804687-15.199219-4.921875 7.382813-22.832032 15.199218 4.921876zm-414.042969-26.867188-7.382812-22.832031 15.199219-4.925781 7.410156 22.792969zm428.800781-18.796875-15.199218-4.929687 7.367187-22.839844 15.199219 4.9375zm-443.574218-26.867187-7.382813-22.839844 15.199219-4.925781 7.40625 22.863281zm458.398437-18.804688-15.199219-4.921875 7.113282-21.992187-2.753906 4-19.757813-13.601563 9.085937-13.167968 19.761719 13.601562-5.863281 8.382812 14.972656 4.839844zm-456.253906-21.121093-9.058594-13.167969 19.761719-13.601563 9.085938 13.167969zm39.511719-27.25-9.050782-13.167969 19.753907-13.597657 9.089843 13.167969zm366.296875-1.800782-19.753907-13.597656 9.144532-13.191406 19.757812 13.597656zm-326.753907-25.453125-9.078124-13.167969 19.75-13.601562 9.089843 13.167969zm287.28125-1.792969-19.761718-13.601562 9.089844-13.175781 19.75 13.601562zm-247.761718-25.480468-9.085938-13.167969 19.757813-13.597656 9.089843 13.167969zm208.242187-1.800782-19.761719-13.597656 9.089844-13.167968 19.757813 13.597656zm-168.730469-25.398437-9.085937-13.199219 19.757813-13.601562 9.082031 13.175781zm129.21875-1.800781-19.761718-13.597656 9.085937-13.179688 19.753907 13.601562zm-89.707031-25.472656-9.085937-13.175782 19.757812-13.597656 9.089844 13.144531zm50.191407-1.800782-19.757813-13.597656 9.085937-13.199219 19.753907 13.597657zm0 0" fill="#354468"/><path d="m82.609375 180.097656c0 13.253906-10.746094 24-24 24-13.257813 0-24-10.746094-24-24 0-13.257812 10.742187-24 24-24 13.253906 0 24 10.742188 24 24zm0 0" fill="#f6e8c7"/><g fill="#ffbc05"><path d="m242.609375 72.785156c0 4.417969-3.582031 8-8 8s-8-3.582031-8-8c0-4.417968 3.582031-8 8-8s8 3.582032 8 8zm0 0"/><path d="m386.609375 191.128906c0 4.417969-3.582031 8-8 8s-8-3.582031-8-8c0-4.417968 3.582031-8 8-8s8 3.582032 8 8zm0 0"/><path d="m346.609375 379.449219c0 4.417969-3.582031 8-8 8s-8-3.582031-8-8 3.582031-8 8-8 8 3.582031 8 8zm0 0"/><path d="m162.609375 347.449219c0 4.417969-3.582031 8-8 8s-8-3.582031-8-8 3.582031-8 8-8 8 3.582031 8 8zm0 0"/><path d="m66.609375 180.097656c0 4.417969-3.582031 8-8 8s-8-3.582031-8-8c0-4.417968 3.582031-8 8-8s8 3.582032 8 8zm0 0"/></g></svg>